HIERARCHY
ROOT newVegas:Hips
{
	OFFSET 0.000000 96.479958 0.000000
	CHANNELS 6 Xposition Yposition Zposition Xrotation Yrotation Zrotation
	JOINT newVegas:Pelvis
	{
		OFFSET 0.000000 0.000000 0.000000
		CHANNELS 3 Xrotation Yrotation Zrotation
		JOINT newVegas:LeftUpLeg
		{
			OFFSET 18.735201 -5.666702 -4.541200
			CHANNELS 3 Xrotation Yrotation Zrotation
			JOINT newVegas:LeftLeg
			{
				OFFSET -0.021200 -31.938179 0.493100
				CHANNELS 3 Xrotation Yrotation Zrotation
				JOINT newVegas:LeftFoot
				{
					OFFSET 0.021200 -31.938179 -4.336299
					CHANNELS 3 Xrotation Yrotation Zrotation
					JOINT newVegas:LeftToeBase
					{
						OFFSET 0.943001 -26.722000 15.023500
						CHANNELS 3 Xrotation Yrotation Zrotation
						End Site
						{
							OFFSET 0.000000 30.670183 0.000000
						}
					}
				}
				JOINT newVegas:Left_PantLeg
				{
					OFFSET 0.663870 -9.044666 -1.108900
					CHANNELS 3 Xrotation Yrotation Zrotation
					End Site
					{
						OFFSET 1.415995 20.635357 0.000000
					}
				}
			}
		}
		JOINT newVegas:RightUpLeg
		{
			OFFSET -18.735201 -5.666702 -4.541200
			CHANNELS 3 Xrotation Yrotation Zrotation
			JOINT newVegas:RightLeg
			{
				OFFSET 0.018946 -31.938133 0.493100
				CHANNELS 3 Xrotation Yrotation Zrotation
				JOINT newVegas:RightFoot
				{
					OFFSET -0.018946 -31.938126 -4.336299
					CHANNELS 3 Xrotation Yrotation Zrotation
					JOINT newVegas:RightToeBase
					{
						OFFSET -0.943001 -26.722004 15.023500
						CHANNELS 3 Xrotation Yrotation Zrotation
						End Site
						{
							OFFSET 0.000000 30.670187 0.000000
						}
					}
				}
				JOINT newVegas:Right_PantLeg
				{
					OFFSET -0.661674 -9.044716 -1.108900
					CHANNELS 3 Xrotation Yrotation Zrotation
					End Site
					{
						OFFSET -1.415958 20.635269 0.000000
					}
				}
			}
		}
	}
	JOINT newVegas:Spine
	{
		OFFSET 0.000000 10.199997 -0.299500
		CHANNELS 3 Xrotation Yrotation Zrotation
		JOINT newVegas:Spine1
		{
			OFFSET 0.000000 11.900002 -1.516600
			CHANNELS 3 Xrotation Yrotation Zrotation
			JOINT newVegas:Spine2
			{
				OFFSET 0.000000 13.600006 -2.842500
				CHANNELS 3 Xrotation Yrotation Zrotation
				JOINT newVegas:Neck
				{
					OFFSET 0.000000 9.624100 -2.890100
					CHANNELS 3 Xrotation Yrotation Zrotation
					JOINT newVegas:Head
					{
						OFFSET 0.000000 14.068802 -1.351900
						CHANNELS 3 Xrotation Yrotation Zrotation
						JOINT newVegas:Hair_Back
						{
							OFFSET 0.000000 3.231903 -17.524799
							CHANNELS 3 Xrotation Yrotation Zrotation
							End Site
							{
								OFFSET 0.000000 19.849884 0.000000
							}
						}
						JOINT newVegas:Hair_Front
						{
							OFFSET 0.000000 31.260406 4.573800
							CHANNELS 3 Xrotation Yrotation Zrotation
							JOINT newVegas:Hair_Front1
							{
								OFFSET 0.000000 2.284103 11.993300
								CHANNELS 3 Xrotation Yrotation Zrotation
								JOINT newVegas:Hair_Front2
								{
									OFFSET 0.000000 2.284103 11.993300
									CHANNELS 3 Xrotation Yrotation Zrotation
									End Site
									{
										OFFSET 0.000000 12.208862 0.000000
									}
								}
							}
						}
						JOINT newVegas:Jowel
						{
							OFFSET 0.000000 -7.458206 6.864100
							CHANNELS 3 Xrotation Yrotation Zrotation
							End Site
							{
								OFFSET 0.000000 19.849884 0.000000
							}
						}
					}
				}
				JOINT newVegas:LeftShoulder
				{
					OFFSET 15.263000 10.923401 -0.547700
					CHANNELS 3 Xrotation Yrotation Zrotation
					JOINT newVegas:LeftArm
					{
						OFFSET 25.438599 -2.830597 -13.032500
						CHANNELS 3 Xrotation Yrotation Zrotation
						JOINT newVegas:LeftForeArm
						{
							OFFSET 29.960503 0.000000 0.000000
							CHANNELS 3 Xrotation Yrotation Zrotation
							JOINT newVegas:LeftHand
							{
								OFFSET 27.849251 0.000000 0.000000
								CHANNELS 3 Xrotation Yrotation Zrotation
								JOINT newVegas:LeftHandThumb1
								{
									OFFSET 4.487587 -3.305161 6.305391
									CHANNELS 3 Xrotation Yrotation Zrotation
									JOINT newVegas:LeftHandThumb2
									{
										OFFSET 5.480453 -3.164139 3.164143
										CHANNELS 3 Xrotation Yrotation Zrotation
										JOINT newVegas:LeftHandThumb3
										{
											OFFSET 5.159721 -2.978973 2.978967
											CHANNELS 3 Xrotation Yrotation Zrotation
											End Site
											{
												OFFSET 2.494507 5.926697 1.738678
											}
										}
									}
								}
								JOINT newVegas:LeftHandIndex1
								{
									OFFSET 18.578728 -0.527832 5.208049
									CHANNELS 3 Xrotation Yrotation Zrotation
									JOINT newVegas:LeftHandIndex2
									{
										OFFSET 3.192009 0.000000 0.000000
										CHANNELS 3 Xrotation Yrotation Zrotation
										JOINT newVegas:LeftHandIndex3
										{
											OFFSET 3.835129 0.000000 0.000000
											CHANNELS 3 Xrotation Yrotation Zrotation
											End Site
											{
												OFFSET -0.034599 3.816971 0.371180
											}
										}
									}
								}
								JOINT newVegas:LeftHandMiddle1
								{
									OFFSET 18.476105 0.000000 0.000000
									CHANNELS 3 Xrotation Yrotation Zrotation
									JOINT newVegas:LeftHandMiddle2
									{
										OFFSET 3.324875 0.000000 0.000000
										CHANNELS 3 Xrotation Yrotation Zrotation
										JOINT newVegas:LeftHandMiddle3
										{
											OFFSET 4.596550 0.000000 0.000000
											CHANNELS 3 Xrotation Yrotation Zrotation
											End Site
											{
												OFFSET 0.057701 4.578827 0.399218
											}
										}
									}
								}
								JOINT newVegas:LeftHandRing1
								{
									OFFSET 17.732719 0.121887 -4.201567
									CHANNELS 3 Xrotation Yrotation Zrotation
									JOINT newVegas:LeftHandRing2
									{
										OFFSET 2.733170 0.000000 0.000000
										CHANNELS 3 Xrotation Yrotation Zrotation
										JOINT newVegas:LeftHandRing3
										{
											OFFSET 3.178268 0.000000 0.000000
											CHANNELS 3 Xrotation Yrotation Zrotation
											End Site
											{
												OFFSET 0.119102 3.170624 0.185394
											}
										}
									}
								}
								JOINT newVegas:LeftHandPinky1
								{
									OFFSET 15.989624 -0.606689 -7.535461
									CHANNELS 3 Xrotation Yrotation Zrotation
									JOINT newVegas:LeftHandPinky2
									{
										OFFSET 2.538986 0.000000 0.000000
										CHANNELS 3 Xrotation Yrotation Zrotation
										JOINT newVegas:LeftHandPinky3
										{
											OFFSET 2.593102 0.000000 0.000000
											CHANNELS 3 Xrotation Yrotation Zrotation
											End Site
											{
												OFFSET -0.150902 2.584198 0.152708
											}
										}
									}
								}
							}
							JOINT newVegas:Left_Sleeve
							{
								OFFSET 0.267448 -0.649796 0.577675
								CHANNELS 3 Xrotation Yrotation Zrotation
								End Site
								{
									OFFSET 0.000000 15.991241 0.000000
								}
							}
							JOINT newVegas:Left_CapeC
							{
								OFFSET 15.715958 -8.608795 -6.935905
								CHANNELS 3 Xrotation Yrotation Zrotation
								JOINT newVegas:Left_CapeC1
								{
									OFFSET 0.000000 -8.688499 0.000000
									CHANNELS 3 Xrotation Yrotation Zrotation
									End Site
									{
										OFFSET 0.000000 8.688499 0.000000
									}
								}
							}
						}
						JOINT newVegas:Left_CapeB
						{
							OFFSET 26.118385 -8.608795 -7.079235
							CHANNELS 3 Xrotation Yrotation Zrotation
							JOINT newVegas:Left_CapeB1
							{
								OFFSET 0.000000 -8.688499 0.000000
								CHANNELS 3 Xrotation Yrotation Zrotation
								End Site
								{
									OFFSET 0.000000 8.688499 0.000000
								}
							}
						}
						JOINT newVegas:Left_CapeA
						{
							OFFSET 5.115639 -8.608795 -10.395809
							CHANNELS 3 Xrotation Yrotation Zrotation
							JOINT newVegas:Left_CapeA1
							{
								OFFSET 0.000000 -8.688499 0.000000
								CHANNELS 3 Xrotation Yrotation Zrotation
								End Site
								{
									OFFSET 0.000000 8.688499 0.000000
								}
							}
						}
					}
				}
				JOINT newVegas:RightShoulder
				{
					OFFSET -15.263000 10.923401 -0.547700
					CHANNELS 3 Xrotation Yrotation Zrotation
					JOINT newVegas:RightArm
					{
						OFFSET -25.438599 -2.830597 -13.032500
						CHANNELS 3 Xrotation Yrotation Zrotation
						JOINT newVegas:RightForeArm
						{
							OFFSET -29.960503 0.000000 0.000000
							CHANNELS 3 Xrotation Yrotation Zrotation
							JOINT newVegas:RightHand
							{
								OFFSET -27.849251 0.000000 0.000000
								CHANNELS 3 Xrotation Yrotation Zrotation
								JOINT newVegas:RightHandThumb1
								{
									OFFSET -4.487587 -3.305161 6.305391
									CHANNELS 3 Xrotation Yrotation Zrotation
									JOINT newVegas:RightHandThumb2
									{
										OFFSET -5.480453 -3.164139 3.164143
										CHANNELS 3 Xrotation Yrotation Zrotation
										JOINT newVegas:RightHandThumb3
										{
											OFFSET -5.159721 -2.978973 2.978967
											CHANNELS 3 Xrotation Yrotation Zrotation
											End Site
											{
												OFFSET -2.494507 5.926697 1.738678
											}
										}
									}
								}
								JOINT newVegas:RightHandIndex1
								{
									OFFSET -18.578728 -0.527832 5.208049
									CHANNELS 3 Xrotation Yrotation Zrotation
									JOINT newVegas:RightHandIndex2
									{
										OFFSET -3.192009 0.000000 0.000000
										CHANNELS 3 Xrotation Yrotation Zrotation
										JOINT newVegas:RightHandIndex3
										{
											OFFSET -3.835129 0.000000 0.000000
											CHANNELS 3 Xrotation Yrotation Zrotation
											End Site
											{
												OFFSET 0.034599 3.816971 0.371180
											}
										}
									}
								}
								JOINT newVegas:RightHandMiddle1
								{
									OFFSET -18.476105 0.000000 0.000000
									CHANNELS 3 Xrotation Yrotation Zrotation
									JOINT newVegas:RightHandMiddle2
									{
										OFFSET -3.324875 0.000000 0.000000
										CHANNELS 3 Xrotation Yrotation Zrotation
										JOINT newVegas:RightHandMiddle3
										{
											OFFSET -4.596550 0.000000 0.000000
											CHANNELS 3 Xrotation Yrotation Zrotation
											End Site
											{
												OFFSET -0.057701 4.578827 0.399218
											}
										}
									}
								}
								JOINT newVegas:RightHandRing1
								{
									OFFSET -17.732719 0.121887 -4.201567
									CHANNELS 3 Xrotation Yrotation Zrotation
									JOINT newVegas:RightHandRing2
									{
										OFFSET -2.733170 0.000000 0.000000
										CHANNELS 3 Xrotation Yrotation Zrotation
										JOINT newVegas:RightHandRing3
										{
											OFFSET -3.178268 0.000000 0.000000
											CHANNELS 3 Xrotation Yrotation Zrotation
											End Site
											{
												OFFSET -0.119102 3.170624 0.185394
											}
										}
									}
								}
								JOINT newVegas:RightHandPinky1
								{
									OFFSET -15.989624 -0.606689 -7.535461
									CHANNELS 3 Xrotation Yrotation Zrotation
									JOINT newVegas:RightHandPinky2
									{
										OFFSET -2.538986 0.000000 0.000000
										CHANNELS 3 Xrotation Yrotation Zrotation
										JOINT newVegas:RightHandPinky3
										{
											OFFSET -2.593102 0.000000 0.000000
											CHANNELS 3 Xrotation Yrotation Zrotation
											End Site
											{
												OFFSET 0.150902 2.584198 0.152708
											}
										}
									}
								}
							}
							JOINT newVegas:Right_CapeC
							{
								OFFSET -15.715958 -8.608795 -6.935905
								CHANNELS 3 Xrotation Yrotation Zrotation
								JOINT newVegas:Right_CapeC1
								{
									OFFSET 0.000000 -8.688499 0.000000
									CHANNELS 3 Xrotation Yrotation Zrotation
									End Site
									{
										OFFSET 0.000000 8.688499 0.000000
									}
								}
							}
							JOINT newVegas:Right_Sleeve
							{
								OFFSET -0.267448 -0.649994 0.577675
								CHANNELS 3 Xrotation Yrotation Zrotation
								End Site
								{
									OFFSET 0.000000 15.991302 0.000000
								}
							}
						}
						JOINT newVegas:Right_CapeA
						{
							OFFSET -5.115540 -8.608795 -10.395824
							CHANNELS 3 Xrotation Yrotation Zrotation
							JOINT newVegas:Right_CapeA1
							{
								OFFSET 0.000000 -8.688499 0.000000
								CHANNELS 3 Xrotation Yrotation Zrotation
								End Site
								{
									OFFSET 0.000000 8.688499 0.000000
								}
							}
						}
						JOINT newVegas:Right_CapeB
						{
							OFFSET -26.118187 -8.608795 -7.079266
							CHANNELS 3 Xrotation Yrotation Zrotation
							JOINT newVegas:Right_CapeB1
							{
								OFFSET 0.000000 -8.688499 0.000000
								CHANNELS 3 Xrotation Yrotation Zrotation
								End Site
								{
									OFFSET 0.000000 8.688499 0.000000
								}
							}
						}
					}
				}
				JOINT newVegas:Left_Collar
				{
					OFFSET 18.625099 8.655502 8.828100
					CHANNELS 3 Xrotation Yrotation Zrotation
					JOINT newVegas:Left_Collar1
					{
						OFFSET 14.783401 10.540405 -1.259500
						CHANNELS 3 Xrotation Yrotation Zrotation
						End Site
						{
							OFFSET 0.000000 18.199875 0.000000
						}
					}
				}
				JOINT newVegas:Collar_Back
				{
					OFFSET 0.000000 15.630707 -20.132601
					CHANNELS 3 Xrotation Yrotation Zrotation
					End Site
					{
						OFFSET 0.000000 22.523010 0.000000
					}
				}
				JOINT newVegas:Left_Peck
				{
					OFFSET 17.239599 -5.132599 25.482599
					CHANNELS 3 Xrotation Yrotation Zrotation
					End Site
					{
						OFFSET 0.000000 22.523010 0.000000
					}
				}
				JOINT newVegas:Right_Peck
				{
					OFFSET -17.239599 -5.132202 25.482599
					CHANNELS 3 Xrotation Yrotation Zrotation
					End Site
					{
						OFFSET 0.000000 22.523010 0.000000
					}
				}
				JOINT newVegas:Right_Collar
				{
					OFFSET -18.625099 8.655792 8.828100
					CHANNELS 3 Xrotation Yrotation Zrotation
					JOINT newVegas:Right_Collar1
					{
						OFFSET -14.783401 10.539993 -1.259500
						CHANNELS 3 Xrotation Yrotation Zrotation
						End Site
						{
							OFFSET 0.000000 18.199631 0.000000
						}
					}
				}
			}
		}
		JOINT newVegas:Belly
		{
			OFFSET 0.000000 -6.540398 9.014299
			CHANNELS 3 Xrotation Yrotation Zrotation
			End Site
			{
				OFFSET 0.000000 11.566666 0.000000
			}
		}
	}
	JOINT newVegas:ElvisFacialAnim_Joint
	{
		OFFSET 1.000000 -95.330101 -8.825800
		CHANNELS 3 Xrotation Yrotation Zrotation
		End Site
		{
			OFFSET 0.000000 35.315800 0.000000
		}
	}
}
MOTION
Frames: 4
Frame Time: 0.033333
1.225742 112.642242 53.937569 25.018486 -3.518355 1.576278 0.000001 -0.000000 0.000000 -96.688861 1.932700 3.078431 92.849339 4.045847 -1.241359 -17.904497 -0.987896 4.276284 0.000000 0.000000 -0.000000 0.000001 -0.000000 -0.000000 -98.530861 -7.964637 -6.254800 88.411703 4.286552 2.039681 -15.035224 2.493475 -12.949224 0.000000 0.000000 -0.000000 0.000000 0.000000 -0.000001 10.373801 1.998486 -0.758024 9.982789 4.041757 -1.060538 9.987183 4.010813 -1.450007 -5.791283 -0.426875 0.740819 -5.791268 -0.426877 0.740823 0.000002 -0.000000 -0.000000 -5.791246 -0.426871 0.740819 -5.791390 -0.426872 0.740819 -0.000003 0.000000 -0.000000 0.000002 -0.000000 0.000000 3.030647 -16.710201 10.923090 -79.498757 -63.010360 -44.925924 -0.000009 -26.658490 -0.000003 19.055103 5.949978 32.950315 -2.875537 3.737117 9.044229 13.298680 31.552551 1.285441 0.000002 -0.000001 -0.000001 0.648071 4.889875 -24.902629 0.430570 2.206294 -22.082987 0.000000 -0.000001 -0.000001 0.683030 4.980681 -25.871356 0.457302 2.271027 -22.767257 -0.000000 0.000000 -0.000002 -0.838160 2.390656 -30.281821 0.635363 2.655323 -26.908563 0.000001 -0.000000 -0.000003 -3.111188 -1.134845 -31.403745 0.690214 2.760637 -28.069523 0.000001 -0.000005 -0.000005 0.000000 0.000001 0.000002 0.000000 0.000001 0.000002 0.000000 0.000000 0.000002 -0.000002 -0.000001 -0.000001 -0.000003 -0.000001 -0.000000 -0.000002 -0.000001 -0.000001 -0.000002 0.000000 -0.000001 3.068834 22.751010 -5.621547 -62.972398 56.873028 18.697327 0.000004 9.691657 -0.000004 31.617939 1.008904 -35.876791 -6.843756 -4.630924 -19.349752 12.989200 -21.101367 5.109599 0.000000 -0.000001 0.000001 1.118891 -5.804495 21.510467 0.328525 -1.719798 21.627751 -0.000001 -0.000000 0.000001 1.358541 -5.877969 28.369358 0.472036 -2.044824 25.994896 0.000001 0.000000 0.000004 -0.464702 -2.851540 32.737698 0.632841 -2.345837 30.190423 0.000002 0.000001 -0.000003 -1.766417 -1.707600 38.586887 0.896401 -2.748918 36.115441 -0.000001 0.000002 -0.000000 -0.000002 -0.000000 -0.000000 -0.000002 -0.000000 -0.000002 -0.000001 -0.000000 -0.000001 0.000001 -0.000001 0.000003 0.000001 -0.000001 0.000001 0.000001 -0.000001 0.000003 0.000001 -0.000001 0.000001 -0.000002 0.000000 0.000000 -0.000002 0.000000 0.000000 -0.000002 0.000000 0.000000 -0.000002 0.000000 0.000000 -0.000002 0.000000 0.000000 -0.000002 0.000000 0.000000 -0.000002 0.000000 0.000000 -0.000002 0.000000 0.000000 0.000001 -0.000000 0.000000 
1.455228 112.724655 53.924957 24.922828 -3.388574 1.652739 -0.000000 0.000000 -0.000000 -96.286584 2.516415 2.848016 92.469717 4.354564 -1.336022 -17.961938 -1.156334 5.007672 -0.000000 0.000000 -0.000000 -0.000001 -0.000000 0.000001 -98.365727 -7.660907 -6.388368 88.205357 4.215110 1.994328 -14.797048 2.449967 -12.850580 -0.000000 0.000000 0.000000 -0.000001 0.000000 -0.000000 10.327453 1.965450 -0.758711 9.921160 4.024089 -1.045117 9.925873 3.993263 -1.434009 -5.759867 -0.413826 0.691227 -5.759865 -0.413826 0.691229 0.000000 0.000000 -0.000000 -5.759861 -0.413827 0.691229 -5.759874 -0.413821 0.691227 0.000002 0.000000 0.000000 0.000000 0.000000 -0.000001 3.016623 -16.747446 10.747582 -79.671377 -63.076244 -45.529918 0.000001 -27.019931 -0.000001 19.467475 5.885738 33.021441 -2.875537 3.737114 9.044233 13.254713 31.297054 1.286674 0.000002 -0.000003 -0.000004 0.511606 4.587708 -24.667194 0.420567 2.181482 -21.821759 -0.000001 0.000000 0.000003 0.671314 4.957186 -25.614451 0.447202 2.246795 -22.510999 0.000000 -0.000000 -0.000003 -0.721339 2.562581 -30.008132 0.623476 2.631807 -26.650724 0.000001 -0.000002 0.000001 -2.891965 -0.788207 -31.106833 0.677804 2.737263 -27.810579 -0.000001 -0.000001 -0.000006 -0.000000 -0.000001 -0.000000 -0.000000 -0.000001 -0.000000 -0.000001 -0.000001 0.000000 -0.000002 -0.000002 0.000001 -0.000002 -0.000001 0.000003 -0.000002 -0.000002 0.000001 -0.000002 -0.000001 0.000001 3.057340 22.583621 -5.675945 -63.793605 56.983852 19.721451 -0.000003 9.729336 -0.000001 31.935304 1.000702 -36.286978 -6.843756 -4.630925 -19.349747 12.922994 -20.852407 5.101289 0.000001 -0.000003 0.000001 0.994500 -5.487921 21.269320 0.319816 -1.697684 21.335887 -0.000001 -0.000000 -0.000001 1.343429 -5.864866 28.111447 0.462913 -2.025997 25.737994 -0.000001 0.000000 0.000000 -0.319100 -3.060762 32.466966 0.622324 -2.327688 29.932778 0.000001 0.000002 0.000003 -1.519171 -2.014385 38.308803 0.884070 -2.731993 35.857458 -0.000000 0.000001 0.000002 0.000000 -0.000000 0.000000 0.000000 -0.000000 0.000001 0.000000 -0.000000 -0.000000 -0.000000 -0.000001 0.000002 -0.000000 -0.000001 0.000000 -0.000000 -0.000001 0.000002 -0.000000 -0.000001 0.000000 -0.000001 -0.000000 -0.000001 -0.000001 -0.000000 -0.000001 -0.000001 -0.000000 -0.000001 -0.000001 -0.000000 -0.000001 -0.000001 -0.000000 -0.000001 -0.000001 -0.000000 -0.000001 -0.000001 -0.000000 -0.000001 0.000001 0.000000 0.000000 -0.000000 0.000000 -0.000000 
1.732687 112.939056 53.834957 24.756140 -3.226231 1.725557 0.000001 0.000000 0.000000 -95.586476 3.190261 2.453141 91.730335 4.822963 -1.424388 -18.006288 -1.361514 5.892288 -0.000000 -0.000000 -0.000000 -0.000000 0.000000 0.000000 -97.963545 -7.244583 -6.437737 87.669883 4.047482 1.933285 -14.408906 2.376363 -12.674744 -0.000000 0.000000 -0.000000 -0.000001 0.000001 -0.000000 10.328796 1.935435 -0.709708 9.901007 3.999229 -0.998649 9.907994 3.964856 -1.389674 -5.732263 -0.397740 0.636738 -5.732272 -0.397745 0.636737 0.000000 0.000000 -0.000000 -5.732280 -0.397740 0.636736 -5.732219 -0.397747 0.636737 -0.000003 0.000000 -0.000001 0.000000 0.000000 -0.000000 3.002803 -16.812698 10.532459 -79.647239 -63.009151 -46.139881 -0.000002 -27.503999 -0.000000 19.790531 5.782448 33.120212 -2.875538 3.737117 9.044228 13.205729 31.013512 1.286606 0.000001 -0.000002 -0.000003 0.362967 4.250945 -24.406844 0.409602 2.153917 -21.531727 -0.000000 -0.000000 -0.000001 0.658442 4.931075 -25.329222 0.436116 2.219878 -22.226453 -0.000000 -0.000000 0.000003 -0.593623 2.754764 -29.704489 0.610388 2.605613 -26.364424 0.000002 -0.000001 -0.000001 -2.652674 -0.400994 -30.778277 0.664142 2.711219 -27.523067 0.000000 0.000000 -0.000001 -0.000001 -0.000000 -0.000002 -0.000001 -0.000000 -0.000002 -0.000002 -0.000001 -0.000002 0.000001 -0.000002 0.000001 0.000000 -0.000002 0.000001 0.000001 -0.000002 0.000001 0.000001 -0.000002 0.000001 3.016054 22.385477 -5.588252 -64.644660 57.116067 20.928253 0.000005 9.900451 0.000001 32.173719 1.131506 -36.650904 -6.843756 -4.630925 -19.349757 12.849645 -20.575938 5.093843 -0.000000 -0.000001 0.000001 0.859611 -5.135236 21.002558 0.310288 -1.673078 21.011827 -0.000001 0.000001 0.000002 1.326725 -5.850295 27.825077 0.452884 -2.005088 25.452744 0.000000 -0.000000 -0.000004 -0.159783 -3.294657 32.166803 0.610766 -2.307515 29.646692 0.000001 0.000000 0.000004 -1.248110 -2.357643 38.001154 0.870458 -2.713075 35.571014 -0.000002 0.000002 -0.000001 -0.000002 0.000001 -0.000000 -0.000001 0.000001 0.000000 -0.000002 0.000001 -0.000001 0.000000 0.000000 0.000002 0.000000 0.000000 0.000001 0.000000 0.000000 0.000002 0.000000 -0.000000 0.000001 -0.000003 -0.000000 0.000000 -0.000003 -0.000000 0.000000 -0.000003 -0.000000 0.000000 -0.000003 -0.000000 0.000000 -0.000003 -0.000000 0.000000 -0.000003 -0.000000 0.000000 -0.000003 -0.000000 0.000000 0.000002 -0.000000 -0.000000 0.000001 0.000000 0.000000 
2.054249 113.362305 53.661556 24.552151 -3.112733 1.811386 -0.000000 -0.000000 0.000000 -94.457746 3.813039 1.948811 90.484113 5.390554 -1.505027 -18.124605 -1.565822 6.744716 -0.000000 -0.000000 -0.000000 -0.000001 0.000000 -0.000000 -97.217976 -6.803513 -6.354654 86.595283 3.827527 1.876972 -13.835310 2.287955 -12.520153 -0.000000 0.000001 -0.000000 -0.000000 -0.000001 -0.000001 10.361429 1.891503 -0.639988 9.907276 3.922634 -0.940375 9.916574 3.883102 -1.330194 -5.713662 -0.380142 0.583654 -5.713621 -0.380142 0.583661 -0.000002 0.000000 -0.000000 -5.713712 -0.380138 0.583654 -5.713691 -0.380140 0.583657 0.000003 0.000000 -0.000000 -0.000002 0.000000 -0.000000 2.975776 -16.825368 10.293227 -79.203830 -62.996918 -46.532757 0.000004 -27.762101 0.000007 20.049732 5.582107 33.247346 -2.875536 3.737117 9.044231 13.152619 30.705098 1.284722 0.000001 -0.000002 -0.000003 0.204812 3.882632 -24.124592 0.397815 2.123817 -21.215903 0.000000 -0.000000 0.000003 0.644558 4.902525 -25.018648 0.424195 2.190497 -21.916607 -0.000001 -0.000001 -0.000004 -0.456974 2.965531 -29.374130 0.596297 2.576990 -26.052684 0.000003 -0.000002 -0.000003 -2.397058 0.023392 -30.421782 0.649399 2.682777 -27.210021 -0.000000 -0.000005 -0.000002 -0.000002 -0.000001 -0.000001 -0.000002 -0.000001 -0.000001 -0.000003 -0.000002 -0.000001 -0.000000 0.000001 0.000001 -0.000001 0.000000 -0.000001 -0.000000 0.000001 0.000001 -0.000000 -0.000000 0.000000 2.967679 22.141434 -5.485489 -65.323437 57.278089 22.291417 -0.000001 10.186828 0.000002 32.342582 1.252982 -37.074779 -6.843756 -4.630925 -19.349755 12.769354 -20.274940 5.087736 -0.000000 -0.000003 0.000001 0.716584 -4.749800 20.713240 0.300068 -1.646256 20.658949 0.000000 0.000001 -0.000002 1.308570 -5.834261 27.513274 0.442073 -1.982235 25.142140 0.000000 -0.000000 0.000001 0.010872 -3.551209 31.840457 0.598276 -2.285444 29.335178 0.000000 -0.000001 -0.000001 -0.957078 -2.734568 37.667513 0.855753 -2.692391 35.259124 0.000001 0.000002 -0.000002 -0.000002 0.000000 0.000000 0.000000 -0.000000 0.000001 -0.000002 0.000000 -0.000000 -0.000000 -0.000002 0.000002 -0.000001 -0.000002 0.000000 -0.000000 -0.000002 0.000002 -0.000001 -0.000002 0.000000 0.000001 0.000000 -0.000000 0.000001 0.000000 -0.000000 0.000001 0.000000 -0.000000 0.000001 0.000000 -0.000000 0.000001 0.000000 -0.000000 0.000001 0.000000 -0.000000 0.000001 0.000000 -0.000000 0.000001 0.000000 -0.000000 -0.000000 -0.000000 0.000000 
